<svg xmlns="http://www.w3.org/2000/svg" viewBox="0 0 72 72" width="72" height="72">
  <!-- Background circle -->
  <circle cx="36" cy="36" r="34" fill="#E8C4A0" stroke="#2C1810" stroke-width="2"/>
  
  <!-- Ears -->
  <ellipse cx="24" cy="17" rx="5" ry="7" fill="#E8C4A0" stroke="#2C1810" stroke-width="1"/>
  <ellipse cx="48" cy="17" rx="5" ry="7" fill="#E8C4A0" stroke="#2C1810" stroke-width="1"/>
  
  <!-- Face circle -->
  <circle cx="36" cy="36" r="24" fill="#F5F0E8" stroke="#2C1810" stroke-width="1"/>
  
  <!-- Hair/spot -->
  <path d="M 32 15 Q 36 9 40 15 Q 41 21 40 26 Q 38 30 36 32 Q 34 30 32 26 Q 31 21 32 15 Z" fill="#8B4513" stroke="#2C1810" stroke-width="1"/>
  
  <!-- Eyes -->
  <circle cx="30" cy="32" r="2" fill="#2C1810"/>
  <circle cx="42" cy="32" r="2" fill="#2C1810"/>
  
  <!-- Cheeks -->
  <circle cx="24" cy="36" r="3" fill="#FFB6C1" opacity="0.7"/>
  <circle cx="48" cy="36" r="3" fill="#FFB6C1" opacity="0.7"/>
  
  <!-- Nose spots -->
  <circle cx="33" cy="28" r="1" fill="#D2B48C"/>
  <circle cx="39" cy="28" r="1" fill="#D2B48C"/>
  
  <!-- Mouth -->
  <path d="M 34 41 Q 36 43 38 41" fill="none" stroke="#2C1810" stroke-width="1" stroke-linecap="round"/>
  
  <!-- Body -->
  <ellipse cx="36" cy="56" r="13" ry="9" fill="#E8C4A0" stroke="#2C1810" stroke-width="1"/>
  
  <!-- Arms -->
  <ellipse cx="24" cy="52" rx="3" ry="8" fill="#E8C4A0" stroke="#2C1810" stroke-width="1"/>
  <ellipse cx="48" cy="52" rx="3" ry="8" fill="#E8C4A0" stroke="#2C1810" stroke-width="1"/>
  
  <!-- Legs -->
  <ellipse cx="32" cy="64" rx="2" ry="5" fill="#F5F0E8" stroke="#2C1810" stroke-width="1"/>
  <ellipse cx="40" cy="64" rx="2" ry="5" fill="#F5F0E8" stroke="#2C1810" stroke-width="1"/>
</svg>