<svg xmlns="http://www.w3.org/2000/svg" viewBox="0 0 96 96" width="96" height="96">
  <!-- Background circle -->
  <circle cx="48" cy="48" r="45" fill="#E8C4A0" stroke="#2C1810" stroke-width="2"/>
  
  <!-- Ears -->
  <ellipse cx="33" cy="23" rx="6" ry="9" fill="#E8C4A0" stroke="#2C1810" stroke-width="2"/>
  <ellipse cx="63" cy="23" rx="6" ry="9" fill="#E8C4A0" stroke="#2C1810" stroke-width="2"/>
  
  <!-- Face circle -->
  <circle cx="48" cy="48" r="32" fill="#F5F0E8" stroke="#2C1810" stroke-width="2"/>
  
  <!-- Hair/spot -->
  <path d="M 42 20 Q 48 12 54 20 Q 55 28 54 35 Q 51 40 48 42 Q 45 40 42 35 Q 41 28 42 20 Z" fill="#8B4513" stroke="#2C1810" stroke-width="1"/>
  
  <!-- Eyes -->
  <circle cx="40" cy="42" r="3" fill="#2C1810"/>
  <circle cx="56" cy="42" r="3" fill="#2C1810"/>
  
  <!-- Cheeks -->
  <circle cx="33" cy="47" r="4" fill="#FFB6C1" opacity="0.7"/>
  <circle cx="63" cy="47" r="4" fill="#FFB6C1" opacity="0.7"/>
  
  <!-- Nose spots -->
  <circle cx="44" cy="37" r="1.5" fill="#D2B48C"/>
  <circle cx="52" cy="37" r="1.5" fill="#D2B48C"/>
  
  <!-- Mouth -->
  <path d="M 45 55 Q 48 57 51 55" fill="none" stroke="#2C1810" stroke-width="2" stroke-linecap="round"/>
  
  <!-- Body -->
  <ellipse cx="48" cy="75" rx="17" ry="12" fill="#E8C4A0" stroke="#2C1810" stroke-width="2"/>
  
  <!-- Arms -->
  <ellipse cx="33" cy="70" rx="4" ry="10" fill="#E8C4A0" stroke="#2C1810" stroke-width="1"/>
  <ellipse cx="63" cy="70" rx="4" ry="10" fill="#E8C4A0" stroke="#2C1810" stroke-width="1"/>
  
  <!-- Legs -->
  <ellipse cx="42" cy="85" rx="3" ry="6" fill="#F5F0E8" stroke="#2C1810" stroke-width="1"/>
  <ellipse cx="54" cy="85" rx="3" ry="6" fill="#F5F0E8" stroke="#2C1810" stroke-width="1"/>
</svg>