<svg xmlns="http://www.w3.org/2000/svg" viewBox="0 0 192 192" width="192" height="192">
  <!-- Background circle -->
  <circle cx="96" cy="96" r="90" fill="#E8C4A0" stroke="#2C1810" stroke-width="4"/>
  
  <!-- Ears -->
  <ellipse cx="65" cy="45" rx="12" ry="18" fill="#E8C4A0" stroke="#2C1810" stroke-width="3"/>
  <ellipse cx="127" cy="45" rx="12" ry="18" fill="#E8C4A0" stroke="#2C1810" stroke-width="3"/>
  
  <!-- Face circle -->
  <circle cx="96" cy="96" r="65" fill="#F5F0E8" stroke="#2C1810" stroke-width="3"/>
  
  <!-- Hair/spot -->
  <path d="M 85 40 Q 96 25 107 40 Q 110 55 107 70 Q 100 80 96 85 Q 92 80 85 70 Q 82 55 85 40 Z" fill="#8B4513" stroke="#2C1810" stroke-width="2"/>
  
  <!-- Eyes -->
  <circle cx="80" cy="85" r="6" fill="#2C1810"/>
  <circle cx="112" cy="85" r="6" fill="#2C1810"/>
  
  <!-- Cheeks -->
  <circle cx="65" cy="95" r="8" fill="#FFB6C1" opacity="0.7"/>
  <circle cx="127" cy="95" r="8" fill="#FFB6C1" opacity="0.7"/>
  
  <!-- Nose spots -->
  <circle cx="88" cy="75" r="3" fill="#D2B48C"/>
  <circle cx="104" cy="75" r="3" fill="#D2B48C"/>
  
  <!-- Mouth -->
  <path d="M 90 110 Q 96 115 102 110" fill="none" stroke="#2C1810" stroke-width="3" stroke-linecap="round"/>
  
  <!-- Body -->
  <ellipse cx="96" cy="150" rx="35" ry="25" fill="#E8C4A0" stroke="#2C1810" stroke-width="3"/>
  
  <!-- Arms -->
  <ellipse cx="65" cy="140" rx="8" ry="20" fill="#E8C4A0" stroke="#2C1810" stroke-width="2"/>
  <ellipse cx="127" cy="140" rx="8" ry="20" fill="#E8C4A0" stroke="#2C1810" stroke-width="2"/>
  
  <!-- Legs -->
  <ellipse cx="85" cy="170" rx="6" ry="12" fill="#F5F0E8" stroke="#2C1810" stroke-width="2"/>
  <ellipse cx="107" cy="170" rx="6" ry="12" fill="#F5F0E8" stroke="#2C1810" stroke-width="2"/>
</svg>