<svg xmlns="http://www.w3.org/2000/svg" viewBox="0 0 144 144" width="144" height="144">
  <!-- Background circle -->
  <circle cx="72" cy="72" r="68" fill="#E8C4A0" stroke="#2C1810" stroke-width="3"/>
  
  <!-- Ears -->
  <ellipse cx="49" cy="34" rx="9" ry="14" fill="#E8C4A0" stroke="#2C1810" stroke-width="2"/>
  <ellipse cx="95" cy="34" rx="9" ry="14" fill="#E8C4A0" stroke="#2C1810" stroke-width="2"/>
  
  <!-- Face circle -->
  <circle cx="72" cy="72" r="49" fill="#F5F0E8" stroke="#2C1810" stroke-width="2"/>
  
  <!-- Hair/spot -->
  <path d="M 64 30 Q 72 19 80 30 Q 82 41 80 53 Q 75 60 72 64 Q 69 60 64 53 Q 62 41 64 30 Z" fill="#8B4513" stroke="#2C1810" stroke-width="2"/>
  
  <!-- Eyes -->
  <circle cx="60" cy="64" r="5" fill="#2C1810"/>
  <circle cx="84" cy="64" r="5" fill="#2C1810"/>
  
  <!-- Cheeks -->
  <circle cx="49" cy="71" r="6" fill="#FFB6C1" opacity="0.7"/>
  <circle cx="95" cy="71" r="6" fill="#FFB6C1" opacity="0.7"/>
  
  <!-- Nose spots -->
  <circle cx="66" cy="56" r="2" fill="#D2B48C"/>
  <circle cx="78" cy="56" r="2" fill="#D2B48C"/>
  
  <!-- Mouth -->
  <path d="M 68 83 Q 72 86 76 83" fill="none" stroke="#2C1810" stroke-width="2" stroke-linecap="round"/>
  
  <!-- Body -->
  <ellipse cx="72" cy="113" rx="26" ry="19" fill="#E8C4A0" stroke="#2C1810" stroke-width="2"/>
  
  <!-- Arms -->
  <ellipse cx="49" cy="105" rx="6" ry="15" fill="#E8C4A0" stroke="#2C1810" stroke-width="2"/>
  <ellipse cx="95" cy="105" rx="6" ry="15" fill="#E8C4A0" stroke="#2C1810" stroke-width="2"/>
  
  <!-- Legs -->
  <ellipse cx="64" cy="128" rx="5" ry="9" fill="#F5F0E8" stroke="#2C1810" stroke-width="2"/>
  <ellipse cx="80" cy="128" rx="5" ry="9" fill="#F5F0E8" stroke="#2C1810" stroke-width="2"/>
</svg>