<svg xmlns="http://www.w3.org/2000/svg" viewBox="0 0 512 512" width="512" height="512">
  <!-- Background circle -->
  <circle cx="256" cy="256" r="240" fill="#E8C4A0" stroke="#2C1810" stroke-width="10"/>
  
  <!-- Ears -->
  <ellipse cx="173" cy="120" rx="32" ry="48" fill="#E8C4A0" stroke="#2C1810" stroke-width="8"/>
  <ellipse cx="339" cy="120" rx="32" ry="48" fill="#E8C4A0" stroke="#2C1810" stroke-width="8"/>
  
  <!-- Face circle -->
  <circle cx="256" cy="256" r="173" fill="#F5F0E8" stroke="#2C1810" stroke-width="8"/>
  
  <!-- Hair/spot -->
  <path d="M 227 107 Q 256 67 285 107 Q 293 147 285 187 Q 267 213 256 227 Q 245 213 227 187 Q 219 147 227 107 Z" fill="#8B4513" stroke="#2C1810" stroke-width="5"/>
  
  <!-- Eyes -->
  <circle cx="213" cy="227" r="16" fill="#2C1810"/>
  <circle cx="299" cy="227" r="16" fill="#2C1810"/>
  
  <!-- Cheeks -->
  <circle cx="173" cy="253" r="21" fill="#FFB6C1" opacity="0.7"/>
  <circle cx="339" cy="253" r="21" fill="#FFB6C1" opacity="0.7"/>
  
  <!-- Nose spots -->
  <circle cx="235" cy="200" r="8" fill="#D2B48C"/>
  <circle cx="277" cy="200" r="8" fill="#D2B48C"/>
  
  <!-- Mouth -->
  <path d="M 240 293 Q 256 307 272 293" fill="none" stroke="#2C1810" stroke-width="8" stroke-linecap="round"/>
  
  <!-- Body -->
  <ellipse cx="256" cy="400" rx="93" ry="67" fill="#E8C4A0" stroke="#2C1810" stroke-width="8"/>
  
  <!-- Arms -->
  <ellipse cx="173" cy="373" rx="21" ry="53" fill="#E8C4A0" stroke="#2C1810" stroke-width="5"/>
  <ellipse cx="339" cy="373" rx="21" ry="53" fill="#E8C4A0" stroke="#2C1810" stroke-width="5"/>
  
  <!-- Legs -->
  <ellipse cx="227" cy="453" rx="16" ry="32" fill="#F5F0E8" stroke="#2C1810" stroke-width="5"/>
  <ellipse cx="285" cy="453" rx="16" ry="32" fill="#F5F0E8" stroke="#2C1810" stroke-width="5"/>
</svg>