<svg xmlns="http://www.w3.org/2000/svg" viewBox="0 0 128 128" width="128" height="128">
  <!-- Background circle -->
  <circle cx="64" cy="64" r="60" fill="#E8C4A0" stroke="#2C1810" stroke-width="3"/>
  
  <!-- Ears -->
  <ellipse cx="43" cy="30" rx="8" ry="12" fill="#E8C4A0" stroke="#2C1810" stroke-width="2"/>
  <ellipse cx="85" cy="30" rx="8" ry="12" fill="#E8C4A0" stroke="#2C1810" stroke-width="2"/>
  
  <!-- Face circle -->
  <circle cx="64" cy="64" r="43" fill="#F5F0E8" stroke="#2C1810" stroke-width="2"/>
  
  <!-- Hair/spot -->
  <path d="M 57 27 Q 64 17 71 27 Q 73 36 71 47 Q 67 53 64 57 Q 61 53 57 47 Q 55 36 57 27 Z" fill="#8B4513" stroke="#2C1810" stroke-width="2"/>
  
  <!-- Eyes -->
  <circle cx="53" cy="57" r="4" fill="#2C1810"/>
  <circle cx="75" cy="57" r="4" fill="#2C1810"/>
  
  <!-- Cheeks -->
  <circle cx="43" cy="63" r="5" fill="#FFB6C1" opacity="0.7"/>
  <circle cx="85" cy="63" r="5" fill="#FFB6C1" opacity="0.7"/>
  
  <!-- Nose spots -->
  <circle cx="59" cy="50" r="2" fill="#D2B48C"/>
  <circle cx="69" cy="50" r="2" fill="#D2B48C"/>
  
  <!-- Mouth -->
  <path d="M 60 74 Q 64 77 68 74" fill="none" stroke="#2C1810" stroke-width="2" stroke-linecap="round"/>
  
  <!-- Body -->
  <ellipse cx="64" cy="100" rx="23" ry="17" fill="#E8C4A0" stroke="#2C1810" stroke-width="2"/>
  
  <!-- Arms -->
  <ellipse cx="43" cy="93" rx="5" ry="13" fill="#E8C4A0" stroke-width="2"/>
  <ellipse cx="85" cy="93" rx="5" ry="13" fill="#E8C4A0" stroke="#2C1810" stroke-width="2"/>
  
  <!-- Legs -->
  <ellipse cx="57" cy="114" rx="4" ry="8" fill="#F5F0E8" stroke="#2C1810" stroke-width="2"/>
  <ellipse cx="71" cy="114" rx="4" ry="8" fill="#F5F0E8" stroke="#2C1810" stroke-width="2"/>
</svg>